<svg width="18" height="18" viewBox="0 0 18 18" fill="none" xmlns="http://www.w3.org/2000/svg">
<path d="M9.45866 14.9969C9.16718 14.8433 8.81874 14.8431 8.52711 14.9964L4.61456 17.0535C3.88092 17.4392 3.02346 16.8162 3.1636 15.9993L3.91104 11.6421C3.96673 11.3175 3.85897 10.9862 3.62294 10.7565L0.453895 7.6717C-0.14038 7.09323 0.187224 6.08442 1.00798 5.96547L5.37947 5.33192C5.70533 5.28469 5.98705 5.08008 6.13277 4.78482L8.08926 0.820492C8.45607 0.0772399 9.51593 0.0772408 9.88274 0.820493L11.8392 4.78482C11.9849 5.08008 12.2667 5.28469 12.5925 5.33192L16.964 5.96547C17.7848 6.08442 18.1124 7.09323 17.5181 7.6717L14.3491 10.7565C14.113 10.9862 14.0053 11.3175 14.061 11.6421L14.808 15.9969C14.9482 16.8143 14.0899 17.4373 13.3562 17.0507L9.45866 14.9969Z" fill="#F26465"/>
</svg>
