<svg width="40" height="40" viewBox="0 0 40 40" fill="none" xmlns="http://www.w3.org/2000/svg">
<rect width="40" height="40" rx="20" fill="white"/>
<path d="M15.4756 22.9762C16.8563 22.9762 17.9756 21.8569 17.9756 20.4762C17.9756 19.0955 16.8563 17.9762 15.4756 17.9762C14.0949 17.9762 12.9756 19.0955 12.9756 20.4762C12.9756 21.8569 14.0949 22.9762 15.4756 22.9762Z" stroke="#0F0F17" stroke-width="1.5" stroke-linecap="round" stroke-linejoin="round"/>
<path d="M25.4756 17.9762C26.8563 17.9762 27.9756 16.8569 27.9756 15.4762C27.9756 14.0955 26.8563 12.9762 25.4756 12.9762C24.0949 12.9762 22.9756 14.0955 22.9756 15.4762C22.9756 16.8569 24.0949 17.9762 25.4756 17.9762Z" stroke="#0F0F17" stroke-width="1.5" stroke-linecap="round" stroke-linejoin="round"/>
<path d="M25.4756 27.9762C26.8563 27.9762 27.9756 26.8569 27.9756 25.4762C27.9756 24.0955 26.8563 22.9762 25.4756 22.9762C24.0949 22.9762 22.9756 24.0955 22.9756 25.4762C22.9756 26.8569 24.0949 27.9762 25.4756 27.9762Z" stroke="#0F0F17" stroke-width="1.5" stroke-linecap="round" stroke-linejoin="round"/>
<path d="M17.7256 19.3929L23.2256 16.5596" stroke="#0F0F17" stroke-width="1.5" stroke-linecap="round" stroke-linejoin="round"/>
<path d="M17.7256 21.5596L23.2256 24.3929" stroke="#0F0F17" stroke-width="1.5" stroke-linecap="round" stroke-linejoin="round"/>
</svg>
