<svg width="22" height="22" viewBox="0 0 22 22" fill="none" xmlns="http://www.w3.org/2000/svg">
<path d="M15.6667 1V0V1ZM3.44444 1V0V1ZM1 3.5H0H1ZM3.44444 6V7V6ZM18.1111 6V7V6ZM18.3333 11C18.3333 11.5523 18.781 12 19.3333 12C19.8856 12 20.3333 11.5523 20.3333 11H18.3333ZM20.3333 16C20.3333 15.4477 19.8856 15 19.3333 15C18.781 15 18.3333 15.4477 18.3333 16H20.3333ZM1 18.5H0H1ZM17.8889 6V2.25H15.8889V6H17.8889ZM17.8889 2.25C17.8889 1.66042 17.6601 1.09059 17.2459 0.666999L15.8159 2.06523C15.8601 2.11048 15.8889 2.17654 15.8889 2.25H17.8889ZM17.2459 0.666999C16.831 0.242642 16.2634 0 15.6667 0V2C15.7183 2 15.7724 2.02075 15.8159 2.06523L17.2459 0.666999ZM15.6667 0H3.44444V2H15.6667V0ZM3.44444 0C2.52358 0 1.64509 0.374337 1.00095 1.03312L2.43097 2.43135C2.70367 2.15245 3.0687 2 3.44444 2V0ZM1.00095 1.03312C0.357562 1.69113 0 2.5789 0 3.5H2C2 3.09501 2.15752 2.71102 2.43097 2.43135L1.00095 1.03312ZM0 3.5C0 4.4211 0.357562 5.30887 1.00095 5.96688L2.43097 4.56865C2.15752 4.28898 2 3.90499 2 3.5H0ZM1.00095 5.96688C1.64509 6.62566 2.52358 7 3.44444 7V5C3.0687 5 2.70367 4.84755 2.43097 4.56865L1.00095 5.96688ZM3.44444 7H18.1111V5H3.44444V7ZM18.1111 7C18.1627 7 18.2169 7.02075 18.2603 7.06523L19.6904 5.667C19.2754 5.24264 18.7078 5 18.1111 5V7ZM18.2603 7.06523C18.3046 7.11048 18.3333 7.17653 18.3333 7.25H20.3333C20.3333 6.66043 20.1045 6.0906 19.6904 5.667L18.2603 7.06523ZM18.3333 7.25V11H20.3333V7.25H18.3333ZM18.3333 16V19.75H20.3333V16H18.3333ZM18.3333 19.75C18.3333 19.8235 18.3046 19.8895 18.2603 19.9348L19.6904 21.333C20.1045 20.9094 20.3333 20.3396 20.3333 19.75H18.3333ZM18.2603 19.9348C18.2169 19.9792 18.1627 20 18.1111 20V22C18.7078 22 19.2754 21.7574 19.6904 21.333L18.2603 19.9348ZM18.1111 20H3.44444V22H18.1111V20ZM3.44444 20C3.0687 20 2.70367 19.8476 2.43097 19.5686L1.00095 20.9669C1.64509 21.6257 2.52358 22 3.44444 22V20ZM2.43097 19.5686C2.15752 19.289 2 18.905 2 18.5H0C0 19.4211 0.357562 20.3089 1.00095 20.9669L2.43097 19.5686ZM2 18.5V3.5H0V18.5H2ZM20.3333 11V8.44444H18.3333V11H20.3333ZM20.3333 8.44444C20.3333 6.54213 18.7912 5 16.8889 5V7C17.6866 7 18.3333 7.6467 18.3333 8.44444H20.3333Z" fill="#0F0F17"/>
<path d="M20.9997 11V16H16.5552C15.9659 16 15.4006 15.7366 14.9839 15.2678C14.5671 14.7989 14.333 14.163 14.333 13.5C14.333 12.837 14.5671 12.2011 14.9839 11.7322C15.4006 11.2634 15.9659 11 16.5552 11H20.9997Z" stroke="#0F0F17" stroke-width="2" stroke-linecap="round" stroke-linejoin="round"/>
</svg>
